<?xml version="1.0" encoding="UTF-8"?>
<svg width="102px" height="102px" viewBox="0 0 102 102" version="1.1" xmlns="http://www.w3.org/2000/svg" xmlns:xlink="http://www.w3.org/1999/xlink">
    <!-- Generator: sketchtool 49 (51002) - http://www.bohemiancoding.com/sketch -->
    <title>7EF669BB-A3BB-4A0C-827A-E6BFB7FDD3FD</title>
    <desc>Created with sketchtool.</desc>
    <defs></defs>
    <g id="Page-1" stroke="none" stroke-width="1" fill="none" fill-rule="evenodd">
        <g id="Futurocoin_main" transform="translate(-296.000000, -3178.000000)" fill="#ABE7FF" fill-rule="nonzero">
            <g id="Timeline-and-dash" transform="translate(-12.000000, 1599.000000)">
                <g id="past-copy-8" transform="translate(308.000000, 1579.000000)">
                    <g id="bitcoin_ic">
                        <path d="M51,0.607142857 C23.1687935,0.607142857 0.607142857,23.1687935 0.607142857,51 C0.607142857,78.8312065 23.1687935,101.392857 51,101.392857 C78.8312065,101.392857 101.392857,78.8312065 101.392857,51 C101.361628,23.1817392 78.8182608,0.63837179 51,0.607142857 Z M51,97.75 C25.1806879,97.75 4.25,76.8193121 4.25,51 C4.25,25.1806879 25.1806879,4.25 51,4.25 C76.8193121,4.25 97.75,25.1806879 97.75,51 C97.7187763,76.8063677 76.8063677,97.7187763 51,97.75 Z" id="Shape"></path>
                        <path d="M25.16,27.1433333 C25.639122,27.1438005 26.0989566,26.954628 26.4390476,26.6171429 L26.5280952,26.5280952 C27.7492012,25.3078911 29.0587982,24.1795813 30.4461905,23.152381 C31.0218902,22.7858261 31.3443646,22.1281898 31.2816521,21.4485871 C31.2189396,20.7689844 30.7815645,20.1814657 30.1485076,19.9264527 C29.5154507,19.6714398 28.792951,19.7917286 28.2766667,20.2380952 C26.7368087,21.3780939 25.283763,22.6309061 23.9295238,23.9861905 L23.8809524,24.0347619 C23.3559401,24.553844 23.1962077,25.3385093 23.4765113,26.0215276 C23.7568149,26.7045459 24.4217022,27.1507958 25.16,27.1514286 L25.16,27.1433333 Z" id="Shape"></path>
                        <path d="M44.2161905,17 C44.3185451,17.0087133 44.4214549,17.0087133 44.5238095,17 C46.2206763,16.6811938 47.9389107,16.4890762 49.6642857,16.4252381 C50.6702329,16.3872356 51.4549072,15.5409472 51.4169047,14.535 C51.3789023,13.5290528 50.5326139,12.7443785 49.5266667,12.782381 C47.6245501,12.8549741 45.7304517,13.0687366 43.86,13.4219048 C42.9967753,13.6516902 42.4275805,14.4735749 42.5160675,15.3624665 C42.6045544,16.251358 43.3246063,16.9449015 44.2161905,17 Z" id="Shape"></path>
                        <path d="M15.0166667,56.982381 C15.4994078,56.9315097 15.9418732,56.6900505 16.2458498,56.3115996 C16.5498264,55.9331487 16.6901648,55.4490172 16.6357143,54.9666667 C16.4848927,53.6498217 16.4092145,52.3254538 16.4090476,51 C16.4090476,50.6006349 16.4090476,50.2012698 16.4090476,49.8019048 C16.4265323,49.3187492 16.2512092,48.8484646 15.9217064,48.4946667 C15.5922036,48.1408688 15.1355583,47.9325881 14.652381,47.9157143 C14.1668746,47.8892457 13.6915076,48.0615285 13.3356933,48.3929093 C12.979879,48.72429 12.77427,49.1862208 12.7661905,49.672381 C12.7661905,50.1149206 12.7661905,50.5574603 12.7661905,51 C12.766628,52.4634217 12.8504144,53.9256308 13.0171429,55.3795238 C13.1200015,56.2995501 13.8966261,56.9960744 14.822381,56.9985714 L15.0166667,56.982381 Z" id="Shape"></path>
                        <path d="M19.3071429,64.9238095 C18.6145877,63.349891 18.0409188,61.7262999 17.5909524,60.0666667 C17.3294061,59.094251 16.3290823,58.5179775 15.3566667,58.7795238 C14.384251,59.0410701 13.8079775,60.0413939 14.0695238,61.0138095 C14.5692727,62.8476842 15.2051651,64.6417124 15.9719048,66.3809524 C16.2336443,66.9767353 16.7933481,67.387625 17.440181,67.4588433 C18.0870139,67.5300616 18.7227067,67.2507888 19.1078,66.7262243 C19.4928934,66.2016597 19.5688824,65.5114972 19.3071429,64.9157143 L19.3071429,64.9238095 Z" id="Shape"></path>
                        <path d="M14.8547619,46.1428571 C14.9651743,46.1527811 15.0762543,46.1527811 15.1866667,46.1428571 C16.0730367,46.1537463 16.8385384,45.5249413 17,44.6533333 C17.307594,42.9613148 17.7405328,41.2945005 18.2952381,39.6666667 C18.5357856,39.0451036 18.4176409,38.3417912 17.9872031,37.8329424 C17.5567654,37.3240937 16.8827763,37.0909728 16.2299329,37.2251337 C15.5770895,37.3592946 15.049652,37.8393116 14.8547619,38.4766667 C14.2319273,40.2807908 13.7448554,42.1289581 13.397619,44.0057143 C13.3053365,44.4825774 13.4073378,44.9765473 13.6809563,45.3778545 C13.9545748,45.7791616 14.3771443,46.0545623 14.8547619,46.1428571 Z" id="Shape"></path>
                        <path d="M17.8904762,35.6757143 C18.7744552,36.1222277 19.8532164,35.78062 20.3190476,34.9066667 C21.1231343,33.3803283 22.0404644,31.9163885 23.0633333,30.5271429 C23.4786801,30.0095796 23.5796725,29.3070794 23.3269444,28.6934728 C23.0742162,28.0798661 22.5077664,27.6522675 21.8483937,27.5773524 C21.189021,27.5024373 20.5410833,27.7920623 20.1571429,28.3333333 C19.0255182,29.8744051 18.0107812,31.4979844 17.1214286,33.1904762 C16.8888288,33.6210514 16.8392815,34.1271136 16.9839516,34.5946264 C17.1286217,35.0621393 17.4553373,35.4517683 17.8904762,35.6757143 Z" id="Shape"></path>
                        <path d="M85.712381,39.7719048 C85.2451358,39.8970655 84.8468665,40.2029449 84.6054047,40.6220861 C84.3639429,41.0412274 84.2991223,41.5392022 84.4252381,42.0061905 C84.8715899,43.6746477 85.1935842,45.3739116 85.3885714,47.09 C85.4914301,48.0100263 86.2680547,48.7065506 87.1938095,48.7090476 L87.4285714,48.7090476 C87.9113125,48.6581763 88.353778,48.4167171 88.6577546,48.0382663 C88.9617312,47.6598154 89.1020696,47.1756838 89.047619,46.6933333 C88.8341201,44.7969003 88.4796472,42.9190059 87.9871429,41.0752381 C87.8661842,40.595857 87.5555475,40.1862425 87.126565,39.9404554 C86.6975826,39.6946683 86.1871146,39.6338278 85.712381,39.7719048 Z" id="Shape"></path>
                        <path d="M80.2966667,32.5590476 C81.2195595,34.0178861 82.031375,35.5440991 82.7252381,37.1247619 C82.9671205,37.7484643 83.5314336,38.1893832 84.1951206,38.2732361 C84.8588076,38.357089 85.515052,38.0703802 85.9044594,37.5264375 C86.2938668,36.9824949 86.3537643,36.2688626 86.0604762,35.667619 C85.2952735,33.9189814 84.3995701,32.2304045 83.3809524,30.6161905 C82.8444472,29.7644885 81.7190829,29.508971 80.867381,30.0454762 C80.015679,30.5819814 79.7601615,31.7073456 80.2966667,32.5590476 Z" id="Shape"></path>
                        <path d="M87.4690476,50.4980952 C86.4662143,50.4706213 85.6266751,51.2525097 85.5828571,52.2547619 C85.5159005,53.9803055 85.3210806,55.6985086 85,57.3952381 C84.8543188,58.0450193 85.0748458,58.7225089 85.5751027,59.1620334 C86.0753595,59.6015578 86.775598,59.7330506 87.4012238,59.5049475 C88.0268496,59.2768445 88.4781289,58.7255086 88.5780952,58.0671429 C88.927813,56.1963781 89.1388635,54.3023359 89.2095238,52.4004762 C89.2314775,51.9172784 89.0603336,51.4451915 88.7338321,51.0883177 C88.4073306,50.731444 87.9522879,50.5190944 87.4690476,50.4980952 Z" id="Shape"></path>
                        <path d="M64.8266667,19.2666667 C66.4101426,19.9600816 67.9390798,20.7719066 69.4004762,21.6952381 C70.2521782,22.2317432 71.3775424,21.9762258 71.9140476,21.1245238 C72.4505528,20.2728218 72.1950353,19.1474576 71.3433333,18.6109524 C69.7261112,17.5950178 68.0348429,16.7020281 66.2838095,15.9395238 C65.3605735,15.5371449 64.2859503,15.959383 63.8835714,16.882619 C63.4811925,17.8058551 63.9034307,18.8804783 64.8266667,19.2828571 L64.8266667,19.2666667 Z" id="Shape"></path>
                        <path d="M54.8614286,16.6114286 C56.5635526,16.8026323 58.2492428,17.1192066 59.9047619,17.5585714 C60.8771775,17.8178823 61.8756891,17.2397966 62.135,16.2673809 C62.3943108,15.2949653 61.8162252,14.2964537 60.8438095,14.0371429 C59.0138799,13.538581 57.1495913,13.1760053 55.2661905,12.952381 C54.6088071,12.858326 53.9523326,13.1294995 53.5529673,13.6600715 C53.153602,14.1906434 53.0746451,14.8965186 53.3469108,15.502217 C53.6191764,16.1079155 54.1995109,16.5174345 54.8614286,16.5709524 L54.8614286,16.6114286 Z" id="Shape"></path>
                        <path d="M75.4719048,26.5280952 C76.0790476,27.1352381 76.6619048,27.7666667 77.2204762,28.4061905 C77.8907464,29.1101947 78.9957221,29.1638116 79.7310039,28.5280091 C80.4662857,27.8922066 80.5727342,26.7910641 79.9728571,26.0261905 C79.357619,25.3219048 78.71,24.617619 78.0461905,23.9538095 C77.382381,23.29 76.6538095,22.61 75.9333333,21.9866667 C75.1710489,21.3294478 74.0203141,21.4146204 73.3630953,22.1769048 C72.7058764,22.9391892 72.7910489,24.089924 73.5533333,24.7471429 C74.2090476,25.3138095 74.8566667,25.9047619 75.4719048,26.5280952 Z" id="Shape"></path>
                        <path d="M62.4871429,83.6561905 C60.8527649,84.228756 59.1777508,84.677952 57.4761905,85 C56.8261009,85.1102062 56.2863308,85.5631465 56.0649381,86.1842319 C55.8435455,86.8053174 55.9751028,87.4975596 56.4089005,87.9941293 C56.8426982,88.4906989 57.5109946,88.7140518 58.1561905,88.5780952 C60.0308552,88.2225641 61.8763159,87.7273745 63.6771429,87.0966667 C64.2917248,86.8812015 64.7446726,86.354228 64.8653652,85.7142518 C64.9860579,85.0742757 64.7561593,84.4185246 64.26227,83.9940137 C63.7683807,83.5695027 63.0855343,83.4407253 62.4709524,83.6561905 L62.4871429,83.6561905 Z" id="Shape"></path>
                        <path d="M81.43,71.1247619 C81.041548,70.8366319 80.5544506,70.7148259 80.0760995,70.7861989 C79.5977484,70.857572 79.1674236,71.1162631 78.88,71.5052381 C77.8530252,72.895346 76.7247138,74.2076507 75.5042857,75.4314286 C74.7934164,76.1445334 74.7952286,77.2988925 75.5083334,78.0097618 C76.2214382,78.7206312 77.3757973,78.718819 78.0866667,78.0057143 C79.4327613,76.6556104 80.6774097,75.2080302 81.8104762,73.6747619 C82.0986062,73.2863099 82.2204122,72.7992125 82.1490392,72.3208614 C82.0776661,71.8425104 81.818975,71.4121855 81.43,71.1247619 Z" id="Shape"></path>
                        <path d="M71.5942857,78.8152381 C70.2083364,79.8435819 68.7470804,80.766338 67.2228571,81.5757143 C66.3286818,82.0473918 65.9861797,83.1546342 66.4578571,84.0488095 C66.9295346,84.9429848 68.0367771,85.285487 68.9309524,84.8138095 C70.624414,83.9200483 72.2480652,82.8998541 73.7880952,81.7619048 C74.3414269,81.3860039 74.6441844,80.7370414 74.5767043,80.0715161 C74.5092242,79.4059909 74.0823661,78.8310068 73.4648437,78.5738233 C72.8473212,78.3166398 72.1385128,78.4186457 71.6185714,78.8395238 L71.5942857,78.8152381 Z" id="Shape"></path>
                        <path d="M86.0038095,61.2728571 C85.053791,60.944961 84.0177153,61.4485083 83.6885714,62.3980952 C83.1226163,64.0285004 82.4352955,65.6142089 81.632381,67.1419048 C81.3287052,67.7203348 81.356686,68.4168352 81.7057832,68.9690411 C82.0548804,69.521247 82.6720578,69.8452652 83.3248308,69.8190411 C83.9776037,69.792817 84.5668004,69.4203348 84.8704762,68.8419048 C85.758733,67.152626 86.5191172,65.3991424 87.1452381,63.5961905 C87.3044772,63.1368168 87.2734506,62.6328454 87.0590658,62.1964735 C86.844681,61.7601016 86.4647335,61.4275514 86.0038095,61.2728571 Z" id="Shape"></path>
                        <path d="M52.36,85.5828571 C50.633482,85.6483065 48.9044877,85.5860736 47.1871429,85.3966667 C46.1789602,85.2871302 45.2728699,86.0156269 45.1633334,87.0238095 C45.0537969,88.0319922 45.7822936,88.9380825 46.7904762,89.047619 C48.1883299,89.2024579 49.5935977,89.2808286 51,89.282381 C51.5019048,89.282381 52.0011111,89.282381 52.497619,89.282381 C53.1483528,89.2563516 53.7357691,88.8851372 54.0385939,88.3085705 C54.3414187,87.7320039 54.3136457,87.0376792 53.9657367,86.487142 C53.6178278,85.9366047 53.0026385,85.6134945 52.3519048,85.6395238 L52.36,85.5828571 Z" id="Shape"></path>
                        <path d="M32.6480952,80.3533333 C31.1866753,79.4356328 29.7958241,78.410083 28.4871429,77.2852381 C27.9985932,76.827737 27.2984822,76.6750413 26.6637991,76.887563 C26.0291161,77.1000847 25.5621231,77.6435817 25.4475795,78.3030267 C25.333036,78.9624718 25.5893975,79.6316132 26.1152381,80.0457143 C27.5613405,81.2892638 29.0983152,82.4230532 30.7133333,83.437619 C31.5624718,83.9322195 32.6508669,83.6640738 33.1730618,82.8316207 C33.6952568,81.9991676 33.4629665,80.9025605 32.6480952,80.3533333 Z" id="Shape"></path>
                        <path d="M39.5614286,18.327619 C40.5114898,17.9967742 41.0134639,16.9583946 40.682619,16.0083333 C40.3517742,15.0582721 39.3133946,14.556298 38.3633333,14.8871429 C36.5628568,15.5161172 34.8120759,16.2792087 33.1257143,17.17 C32.5472843,17.4736757 32.174802,18.0628724 32.1485779,18.7156454 C32.1223538,19.3684184 32.4463719,19.9855959 32.9985779,20.3346931 C33.5507838,20.6837903 34.2472843,20.711771 34.8257143,20.4080952 C36.3501236,19.5973292 37.9331238,18.9018915 39.5614286,18.327619 Z" id="Shape"></path>
                        <path d="M42.0952381,84.4495238 C40.4363855,84.0070741 38.8128362,83.4415377 37.2380952,82.757619 C36.6408663,82.4987716 35.9509105,82.5782046 35.4281275,82.9659964 C34.9053446,83.3537881 34.6291577,83.9910238 34.7036037,84.637663 C34.7780498,85.2843022 35.1918186,85.842105 35.7890476,86.1009524 C37.5397024,86.858154 39.3445873,87.4832341 41.1885714,87.9709524 C42.1343355,88.1546856 43.0596016,87.5701216 43.2998265,86.6371053 C43.5400514,85.704089 43.0121356,84.7453724 42.0952381,84.4495238 Z" id="Shape"></path>
                        <path d="M21.7357143,69.4814286 C21.3903161,68.9249722 20.7727589,68.5967951 20.1183031,68.6219173 C19.4638472,68.6470395 18.8732653,69.0215928 18.5715414,69.6028898 C18.2698175,70.1841869 18.3034108,70.8827201 18.6595238,71.432381 C19.6796659,73.0451176 20.818868,74.5793874 22.067619,76.022381 C22.4942112,76.5140465 23.150699,76.7407799 23.7897899,76.6171731 C24.4288807,76.4935662 24.9534816,76.0383978 25.1659803,75.4231254 C25.3784791,74.8078531 25.2465921,74.1259512 24.82,73.6342857 C23.6897413,72.3288835 22.6587667,70.9407208 21.7357143,69.4814286 Z" id="Shape"></path>
                        <path d="M62.5357143,55.7195238 C62.5563074,52.8732987 60.9631804,50.2609467 58.4233333,48.9761905 C59.1679531,47.8862302 59.5658189,46.5966935 59.5647619,45.2766667 C59.5916777,42.3154372 57.5820782,39.7230539 54.707619,39.0109524 L54.707619,34.882381 C54.707619,33.8764337 53.8921377,33.0609524 52.8861905,33.0609524 C51.8802433,33.0609524 51.0647619,33.8764337 51.0647619,34.882381 L51.0647619,38.7357143 L49.0409524,38.7357143 L49.0409524,34.882381 C49.0409524,33.8764337 48.225471,33.0609524 47.2195238,33.0609524 C46.2135766,33.0609524 45.3980952,33.8764337 45.3980952,34.882381 L45.3980952,38.7357143 L41.2857143,38.7357143 C40.2797671,38.7357143 39.4642857,39.5511956 39.4642857,40.5571429 C39.4642857,41.5630901 40.2797671,42.3785714 41.2857143,42.3785714 L42.8561905,42.3785714 L42.8561905,59.6214286 L41.5042857,59.6214286 C40.4983385,59.6214286 39.6828571,60.4369099 39.6828571,61.4428571 C39.6828571,62.4488044 40.4983385,63.2642857 41.5042857,63.2642857 L45.4385714,63.2642857 L45.4385714,67.117619 C45.4385714,68.1235663 46.2540528,68.9390476 47.26,68.9390476 C48.2659472,68.9390476 49.0814286,68.1235663 49.0814286,67.117619 L49.0814286,63.2642857 L51.1052381,63.2642857 L51.1052381,67.117619 C51.1052381,68.1235663 51.9207194,68.9390476 52.9266667,68.9390476 C53.9326139,68.9390476 54.7480952,68.1235663 54.7480952,67.117619 L54.7480952,63.2561905 C59.8561905,63.1428571 62.5357143,59.4190476 62.5357143,55.7195238 Z M52.6190476,42.3785714 C55.047619,42.3785714 55.9138095,43.9409524 55.9138095,45.2766667 C55.9138095,46.612381 55.1042857,48.0614286 52.837619,48.0614286 L46.4990476,48.0614286 L46.4990476,42.3947619 L52.6190476,42.3785714 Z M46.4990476,51.6961905 L54.3271429,51.6961905 C57.4842857,51.6961905 58.8928571,53.7119048 58.8928571,55.7438095 C58.90747,56.7374647 58.5360104,57.698036 57.8566667,58.4233333 C56.9685323,59.2695043 55.770633,59.7117605 54.5457143,59.6457143 L46.4990476,59.6457143 L46.4990476,51.6961905 Z" id="Shape"></path>
                    </g>
                </g>
            </g>
        </g>
    </g>
</svg>