<?xml version="1.0" encoding="UTF-8"?>
<svg width="85px" height="97px" viewBox="0 0 85 97" version="1.1" xmlns="http://www.w3.org/2000/svg" xmlns:xlink="http://www.w3.org/1999/xlink">
    <!-- Generator: sketchtool 49 (51002) - http://www.bohemiancoding.com/sketch -->
    <title>8D7D2A77-90D9-44A3-8148-0767AF3D0EC2</title>
    <desc>Created with sketchtool.</desc>
    <defs></defs>
    <g id="Page-1" stroke="none" stroke-width="1" fill="none" fill-rule="evenodd">
        <g id="Futurocoin_main" transform="translate(-301.000000, -2267.000000)" fill="#ABE7FF">
            <g id="Timeline-and-dash" transform="translate(-12.000000, 1599.000000)">
                <g id="past" transform="translate(311.000000, 668.000000)">
                    <path d="M86.54,25.25 C86.54,25.227 86.535,25.207 86.534,25.186 C86.533,25.141 86.531,25.096 86.526,25.051 C86.522,25.012 86.515,24.973 86.509,24.934 C86.501,24.885 86.494,24.838 86.482,24.789 C86.472,24.75 86.461,24.709 86.45,24.67 C86.438,24.633 86.424,24.598 86.412,24.561 C86.394,24.514 86.377,24.469 86.357,24.424 C86.338,24.381 86.317,24.342 86.294,24.301 C86.287,24.285 86.282,24.268 86.273,24.252 C86.263,24.234 86.249,24.221 86.239,24.205 C86.215,24.166 86.193,24.129 86.167,24.092 C86.138,24.053 86.107,24.016 86.076,23.979 C86.049,23.945 86.023,23.914 85.995,23.885 C85.968,23.855 85.941,23.828 85.912,23.801 C85.878,23.768 85.841,23.738 85.805,23.707 C85.771,23.68 85.738,23.652 85.702,23.627 C85.667,23.602 85.632,23.58 85.596,23.557 C85.577,23.545 85.561,23.529 85.54,23.518 L45.27,0.268 C45.249,0.256 45.227,0.25 45.206,0.238 C45.17,0.219 45.135,0.201 45.099,0.184 C45.057,0.164 45.014,0.148 44.97,0.133 C44.927,0.115 44.883,0.1 44.839,0.088 C44.803,0.076 44.767,0.067 44.73,0.059 C44.687,0.047 44.643,0.041 44.599,0.033 C44.552,0.026 44.506,0.018 44.46,0.012 C44.417,0.008 44.375,0.008 44.332,0.006 C44.311,0.006 44.291,0 44.27,0 C44.248,0 44.228,0.006 44.206,0.006 C44.163,0.008 44.12,0.008 44.078,0.012 C44.031,0.018 43.985,0.026 43.938,0.033 C43.896,0.041 43.853,0.047 43.812,0.057 C43.773,0.067 43.736,0.076 43.699,0.088 C43.654,0.102 43.611,0.117 43.567,0.133 C43.525,0.148 43.484,0.164 43.445,0.182 C43.406,0.199 43.368,0.221 43.329,0.24 C43.31,0.25 43.289,0.256 43.27,0.268 L3,23.518 C3,23.518 3,23.518 2.999,23.518 L2.998,23.518 C2.995,23.52 2.993,23.524 2.99,23.525 C2.852,23.605 2.731,23.703 2.619,23.811 C2.588,23.84 2.56,23.873 2.531,23.906 C2.451,23.994 2.378,24.088 2.316,24.188 C2.292,24.225 2.269,24.26 2.248,24.299 C2.174,24.434 2.112,24.576 2.072,24.725 C2.071,24.725 2.07,24.727 2.07,24.729 C2.029,24.881 2.011,25.039 2.007,25.197 C2.007,25.215 2,25.232 2,25.25 L2,71.75 C2,71.771 2.006,71.793 2.007,71.815 C2.008,71.857 2.009,71.899 2.014,71.941 C2.018,71.986 2.026,72.031 2.034,72.076 C2.04,72.121 2.048,72.166 2.059,72.209 C2.068,72.246 2.077,72.283 2.088,72.32 C2.101,72.363 2.117,72.406 2.133,72.449 C2.149,72.492 2.164,72.535 2.184,72.576 C2.201,72.615 2.221,72.652 2.241,72.69 C2.251,72.709 2.256,72.729 2.267,72.748 C2.277,72.764 2.29,72.776 2.3,72.791 C2.324,72.83 2.347,72.869 2.374,72.906 C2.412,72.961 2.457,73.012 2.502,73.063 C2.534,73.098 2.559,73.137 2.592,73.168 C2.604,73.18 2.618,73.188 2.629,73.199 C2.675,73.242 2.726,73.281 2.777,73.32 C2.831,73.363 2.886,73.404 2.945,73.441 C2.964,73.455 2.98,73.471 3,73.482 L43.27,96.732 C43.425,96.822 43.589,96.889 43.758,96.934 C43.926,96.979 44.098,97 44.268,97 L44.27,97 C44.4,97 44.527,96.975 44.654,96.949 C44.695,96.942 44.739,96.943 44.779,96.934 C44.842,96.916 44.9,96.883 44.962,96.859 C45.064,96.822 45.167,96.789 45.261,96.736 C45.264,96.734 45.267,96.734 45.27,96.732 L85.54,73.482 C85.561,73.471 85.577,73.455 85.596,73.441 C85.656,73.404 85.71,73.363 85.765,73.32 C85.816,73.281 85.866,73.242 85.912,73.199 C85.923,73.188 85.937,73.18 85.949,73.17 C85.982,73.137 86.007,73.098 86.038,73.063 C86.083,73.012 86.128,72.961 86.166,72.906 C86.194,72.869 86.216,72.83 86.241,72.791 C86.25,72.776 86.265,72.764 86.274,72.748 C86.285,72.729 86.29,72.709 86.3,72.69 C86.32,72.652 86.339,72.615 86.357,72.576 C86.376,72.535 86.392,72.492 86.408,72.449 C86.423,72.406 86.44,72.363 86.453,72.32 C86.463,72.283 86.473,72.246 86.482,72.209 C86.493,72.166 86.499,72.121 86.507,72.076 C86.515,72.031 86.523,71.986 86.527,71.941 C86.532,71.899 86.533,71.855 86.534,71.815 C86.535,71.793 86.54,71.771 86.54,71.75 L86.54,25.25 Z M66.675,33.215 L46.27,21.492 L46.27,5.465 L80.534,25.246 L66.675,33.215 Z M42.27,21.494 L21.917,33.244 L8.006,25.246 L42.27,5.465 L42.27,21.494 Z M21.864,63.766 L36.383,72.149 C36.699,72.33 37.042,72.416 37.381,72.416 C38.073,72.416 38.745,72.059 39.116,71.416 C39.667,70.459 39.34,69.236 38.383,68.684 L23.865,60.301 L23.865,45.063 C23.865,43.959 22.969,43.063 21.865,43.063 C20.76,43.063 19.865,43.959 19.865,45.063 L19.865,60.301 L6,68.289 L6,28.707 L20.517,37.053 C20.733,37.252 20.987,37.393 21.259,37.48 L42.27,49.561 L42.27,73.477 C42.27,73.635 42.292,73.787 42.328,73.936 C42.292,74.082 42.27,74.234 42.27,74.393 L42.27,91.535 L8.004,71.752 L21.864,63.766 Z M44.27,46.098 L25.926,35.551 L44.105,25.055 C44.16,25.059 44.213,25.07 44.27,25.07 C44.328,25.07 44.383,25.059 44.441,25.053 L62.662,35.521 L44.27,46.098 Z M46.27,73.477 L46.27,49.561 L67.66,37.262 C67.6606667,37.2606667 72.6206667,34.4083333 82.54,28.705 L82.54,68.289 L68.675,60.301 L68.675,45.063 C68.675,43.959 67.78,43.063 66.675,43.063 C65.571,43.063 64.675,43.959 64.675,45.063 L64.675,60.303 L50.158,68.684 C49.201,69.236 48.873,70.459 49.425,71.416 C49.796,72.059 50.468,72.416 51.16,72.416 C51.498,72.416 51.843,72.33 52.158,72.149 L66.677,63.766 L80.536,71.752 L46.27,91.535 L46.27,74.393 C46.27,74.234 46.247,74.082 46.212,73.936 C46.247,73.787 46.27,73.635 46.27,73.477 Z" id="Fill-141"></path>
                </g>
            </g>
        </g>
    </g>
</svg>