<?xml version="1.0" encoding="UTF-8"?>
<svg width="18px" height="14px" viewBox="0 0 18 14" version="1.1" xmlns="http://www.w3.org/2000/svg" xmlns:xlink="http://www.w3.org/1999/xlink">
    <!-- Generator: sketchtool 49 (51002) - http://www.bohemiancoding.com/sketch -->
    <title>B5A259E0-0511-4ADA-B2FA-23A4FFE7B63A</title>
    <desc>Created with sketchtool.</desc>
    <defs></defs>
    <g id="Page-1" stroke="none" stroke-width="1" fill="none" fill-rule="evenodd">
        <g id="Futurocoin_main" transform="translate(-1416.000000, -8681.000000)" fill="#ABE7FF">
            <g id="Footer" transform="translate(52.000000, 8628.000000)">
                <g id="social" transform="translate(1212.000000, 52.000000)">
                    <path d="M165.23648,14.8453 C165.46832,15.0049 165.76712,15.0448 166.03352,14.9468 C166.29992,14.8481 166.49576,14.6269 166.5548,14.3588 C167.18048,11.5 168.69824,4.2641 169.26776,1.6636 C169.31096,1.4676 169.23896,1.2639 169.08056,1.133 C168.92216,1.0021 168.70256,0.9643 168.50672,1.035 C165.48776,2.1214 156.1904,5.5129 152.39024,6.88 C152.14904,6.9668 151.99208,7.1922 152,7.4393 C152.00864,7.6871 152.18,7.902 152.42696,7.9741 C154.1312,8.4697 156.36824,9.1592 156.36824,9.1592 C156.36824,9.1592 157.41368,12.2287 157.95872,13.7897 C158.02712,13.9857 158.1848,14.1397 158.39288,14.1929 C158.60024,14.2454 158.822,14.1901 158.9768,14.048 C159.85232,13.2444 161.20592,12.0019 161.20592,12.0019 C161.20592,12.0019 163.77776,13.8352 165.23648,14.8453 Z M157.30928,8.7714 L158.51816,12.648 L158.78672,10.1931 C158.78672,10.1931 163.45736,6.0974 166.11992,3.7629 C166.19768,3.6943 166.20848,3.5795 166.14368,3.499 C166.0796,3.4185 165.96152,3.3996 165.87296,3.4542 C162.78704,5.3701 157.30928,8.7714 157.30928,8.7714 Z" id="telegram-1"></path>
                </g>
            </g>
        </g>
    </g>
</svg>