<?xml version="1.0" encoding="UTF-8"?>
<svg width="15px" height="13px" viewBox="0 0 15 13" version="1.1" xmlns="http://www.w3.org/2000/svg" xmlns:xlink="http://www.w3.org/1999/xlink">
    <!-- Generator: sketchtool 49 (51002) - http://www.bohemiancoding.com/sketch -->
    <title>FEEB18A8-7DA5-48F1-B97F-4FE60002761E</title>
    <desc>Created with sketchtool.</desc>
    <defs></defs>
    <g id="Page-1" stroke="none" stroke-width="1" fill="none" fill-rule="evenodd">
        <g id="Futurocoin_main" transform="translate(-1311.000000, -8682.000000)" fill="#ABE7FF" fill-rule="nonzero">
            <g id="Footer" transform="translate(52.000000, 8628.000000)">
                <g id="social" transform="translate(1212.000000, 52.000000)">
                    <path d="M62,3.40625 C61.4375,3.6875 60.875,3.78125 60.21875,3.875 C60.875,3.5 61.34375,2.9375 61.53125,2.1875 C60.96875,2.5625 60.3125,2.75 59.5625,2.9375 C59,2.375 58.15625,2 57.3125,2 C55.71875,2 54.3125,3.40625 54.3125,5.09375 C54.3125,5.375 54.3125,5.5625 54.40625,5.75 C51.875,5.65625 49.53125,4.4375 48.03125,2.5625 C47.75,3.03125 47.65625,3.5 47.65625,4.15625 C47.65625,5.1875 48.21875,6.125 49.0625,6.6875 C48.59375,6.6875 48.125,6.5 47.65625,6.3125 C47.65625,7.8125 48.6875,9.03125 50.09375,9.3125 C49.8125,9.40625 49.53125,9.40625 49.25,9.40625 C49.0625,9.40625 48.875,9.40625 48.6875,9.3125 C49.0625,10.53125 50.1875,11.46875 51.59375,11.46875 C50.5625,12.3125 49.25,12.78125 47.75,12.78125 L47,12.78125 C48.40625,13.625 50,14.1875 51.6875,14.1875 C57.3125,14.1875 60.40625,9.5 60.40625,5.46875 L60.40625,5.09375 C61.0625,4.625 61.625,4.0625 62,3.40625" id="tt-copy-2"></path>
                </g>
            </g>
        </g>
    </g>
</svg>