<?xml version="1.0" encoding="UTF-8"?>
<svg width="20px" height="11px" viewBox="0 0 20 11" version="1.1" xmlns="http://www.w3.org/2000/svg" xmlns:xlink="http://www.w3.org/1999/xlink">
    <!-- Generator: sketchtool 49 (51002) - http://www.bohemiancoding.com/sketch -->
    <title>EAC9D0E9-66B7-40F3-AAB9-3E8926FFBE5F</title>
    <desc>Created with sketchtool.</desc>
    <defs></defs>
    <g id="Page-1" stroke="none" stroke-width="1" fill="none" fill-rule="evenodd">
        <g id="Futurocoin_main" transform="translate(-1471.000000, -8683.000000)" fill="#ABE7FF" fill-rule="nonzero">
            <g id="Footer" transform="translate(52.000000, 8628.000000)">
                <g id="social" transform="translate(1212.000000, 52.000000)">
                    <path d="M226.893931,12.9342074 C226.869713,12.8838946 226.847137,12.8421607 226.826165,12.8087243 C226.479166,12.2062721 225.816061,11.4668047 224.83725,10.590111 L224.81657,10.5700351 L224.806212,10.5601906 L224.795744,10.5500999 L224.78524,10.5500999 C224.341006,10.1418669 224.059694,9.8673793 223.941888,9.7268482 C223.726335,9.4591463 223.678046,9.1881747 223.795852,8.9136168 C223.879082,8.7061778 224.191724,8.2680946 224.733048,7.5987697 C225.017788,7.2440489 225.243297,6.959752 225.40983,6.7455624 C226.610905,5.2062944 227.131622,4.2226817 226.971872,3.7943377 L226.909833,3.6942395 C226.868145,3.6339767 226.760551,3.5788472 226.587197,3.5285696 C226.413443,3.4783975 226.191362,3.4700999 225.920554,3.5035363 L222.921644,3.5235067 C222.873063,3.5069115 222.803692,3.5084585 222.713313,3.5285696 C222.623044,3.5486806 222.577891,3.5587713 222.577891,3.5587713 L222.525699,3.5839101 L222.484266,3.6141118 C222.449545,3.6340822 222.411358,3.6692062 222.36967,3.7194135 C222.328201,3.769445 222.293516,3.8281608 222.265796,3.8950687 C221.939295,4.7048193 221.568079,5.4576824 221.151454,6.1536228 C220.894578,6.5686063 220.658675,6.9282494 220.443232,7.2327629 C220.228081,7.5371709 220.047579,7.7614511 219.901908,7.9052169 C219.756018,8.0491234 219.624353,8.1644103 219.506109,8.2514995 C219.388048,8.3386239 219.297924,8.3754356 219.23552,8.3619696 C219.17297,8.3485036 219.114067,8.3351432 219.0583,8.3217827 C218.961174,8.2615199 218.88305,8.1795639 218.824147,8.0758444 C218.764989,7.9721248 218.725161,7.8415789 218.704335,7.6843119 C218.683619,7.5269395 218.671364,7.3915768 218.667863,7.2777666 C218.664617,7.164097 218.666112,7.0033142 218.673151,6.7958751 C218.680373,6.5883306 218.683619,6.4479049 218.683619,6.3742817 C218.683619,6.1199403 218.688762,5.8439057 218.699083,5.5461076 C218.709587,5.2483096 218.718085,5.0123564 218.725198,4.8385296 C218.732273,4.6645269 218.735556,4.4804335 218.735556,4.2863549 C218.735556,4.0922764 218.723301,3.9400724 218.699083,3.8296023 C218.675157,3.7192729 218.63843,3.6121781 218.590031,3.5083531 C218.54134,3.4046335 218.470073,3.3244003 218.376557,3.2674425 C218.28286,3.210555 218.166367,3.1654106 218.027735,3.1318688 C217.659765,3.0516004 217.191203,3.0081789 216.621832,3.0014283 C215.330671,2.9880678 214.501032,3.0684417 214.133098,3.2424443 C213.987318,3.3159621 213.855397,3.4164119 213.737445,3.5434771 C213.612454,3.6907588 213.59502,3.7711326 213.685253,3.7843525 C214.101841,3.8445098 214.396757,3.9884162 214.57033,4.2159312 L214.63288,4.3364919 C214.681534,4.4234757 214.730116,4.5774728 214.778733,4.7982723 C214.827278,5.0190718 214.858608,5.2633225 214.872395,5.5308837 C214.907043,6.0194906 214.907043,6.4377439 214.872395,6.785679 C214.837636,7.1337547 214.804811,7.4047263 214.773481,7.5988049 C214.742151,7.7928834 214.695321,7.9501504 214.63288,8.0705705 C214.57033,8.1910258 214.528715,8.264649 214.507852,8.29137 C214.487027,8.318091 214.469666,8.3349322 214.455879,8.3415421 C214.365646,8.374873 214.271803,8.3918549 214.174677,8.3918549 C214.077405,8.3918549 213.959453,8.3449526 213.820639,8.2512182 C213.681861,8.1574839 213.537831,8.0287311 213.38855,7.8647488 C213.239268,7.7007313 213.070911,7.4715287 212.883406,7.1771059 C212.696047,6.8826831 212.501649,6.5347129 212.300321,6.1331953 L212.133752,5.8420071 C212.029623,5.6546791 211.88738,5.3819144 211.706878,5.023959 C211.526267,4.6658629 211.366627,4.3194749 211.227849,3.9848652 C211.172375,3.844334 211.089035,3.7373447 210.977976,3.6637214 L210.925857,3.6335197 C210.891209,3.6067987 210.835588,3.5784253 210.759288,3.5481884 C210.682878,3.5179867 210.603149,3.4963286 210.519773,3.4830033 L207.66657,3.5029737 C207.37501,3.5029737 207.177183,3.5666469 207.073018,3.6938176 L207.03133,3.753975 C207.010504,3.7874816 207,3.8409939 207,3.9146523 C207,3.9882756 207.020826,4.0786346 207.062514,4.185624 C207.479029,5.1292958 207.93198,6.0393907 208.421368,6.9160491 C208.910755,7.7927076 209.336024,8.4988794 209.696918,9.0339315 C210.057886,9.5693703 210.42582,10.0747129 210.80072,10.5497132 C211.175621,11.0248892 211.423779,11.3294027 211.545196,11.4631833 C211.666759,11.59721 211.762243,11.6974136 211.83165,11.7643215 L212.092027,12.0051969 C212.258633,12.1658391 212.503291,12.35823 212.826108,12.5823697 C213.148999,12.8066499 213.506465,13.0274495 213.89869,13.2451198 C214.290987,13.4624386 214.747367,13.6397814 215.268084,13.7769373 C215.788728,13.9142338 216.295476,13.9693282 216.788401,13.9427479 L217.985938,13.9427479 C218.228808,13.9225313 218.412811,13.8489081 218.537875,13.7218429 L218.579308,13.6715301 C218.607173,13.6315893 218.633251,13.5695334 218.657322,13.4860304 C218.681686,13.4023867 218.693795,13.3102346 218.693795,13.2099958 C218.686683,12.9222884 218.709405,12.6629896 218.761342,12.4321346 C218.813242,12.2013498 218.8724,12.0273472 218.938561,11.9101617 C219.004686,11.7930817 219.079309,11.6942844 219.162356,11.6141919 C219.245586,11.5339235 219.304891,11.4852984 219.339685,11.4685626 C219.374261,11.4517214 219.401871,11.4402947 219.422697,11.4334386 C219.589303,11.3799264 219.785379,11.431751 220.011216,11.5891586 C220.236871,11.7464255 220.448521,11.9406095 220.646493,12.1713942 C220.844356,12.4023899 221.082083,12.6615481 221.359712,12.9492555 C221.637522,13.2370684 221.880429,13.4510119 222.088613,13.591754 L222.296798,13.7122093 C222.435831,13.7925831 222.616333,13.8662064 222.838523,13.9331143 C223.060312,13.999987 223.254637,14.0167227 223.421499,13.9832864 L226.08716,13.9432049 C226.35082,13.9432049 226.555977,13.9011194 226.701502,13.8176164 C226.847319,13.7339728 226.933941,13.6418206 226.961879,13.5415819 C226.989744,13.4412376 226.991239,13.3273923 226.967167,13.2001161 C226.942475,13.0731564 226.918148,12.9843795 226.893931,12.9342074 Z" id="vk-copy-2"></path>
                </g>
            </g>
        </g>
    </g>
</svg>