<?xml version="1.0" encoding="UTF-8"?>
<svg width="20px" height="16px" viewBox="0 0 20 16" version="1.1" xmlns="http://www.w3.org/2000/svg" xmlns:xlink="http://www.w3.org/1999/xlink">
    <!-- Generator: sketchtool 49 (51002) - http://www.bohemiancoding.com/sketch -->
    <title>92EF3B5F-CBDF-4DD6-A921-799FA55E3FE3</title>
    <desc>Created with sketchtool.</desc>
    <defs></defs>
    <g id="Page-1" stroke="none" stroke-width="1" fill="none" fill-rule="evenodd">
        <g id="Futurocoin_main" transform="translate(-1528.000000, -8680.000000)" fill="#ABE7FF" fill-rule="nonzero">
            <g id="Footer" transform="translate(52.000000, 8628.000000)">
                <g id="social" transform="translate(1212.000000, 52.000000)">
                    <path d="M277.326923,4.9558011 C277.553961,4.9558011 277.77698,4.9742699 278,4.998895 C277.397244,2.130071 274.395522,0 270.967853,0 C267.138347,0 264,2.6656669 264,6.0536701 C264,8.0072612 265.042767,9.6119968 266.788749,10.8596685 L266.091561,13 L268.528703,11.7523283 C269.400689,11.9267561 270.099885,12.1073402 270.969862,12.1073402 C271.188863,12.1073402 271.405855,12.0970797 271.618829,12.080663 C271.484214,11.6045777 271.403846,11.1059195 271.403846,10.5867403 C271.403846,7.4798737 274.017796,4.9558011 277.326923,4.9558011 Z M273.581802,3.026835 C274.108209,3.026835 274.453789,3.3797948 274.453789,3.9153907 C274.453789,4.4489345 274.108209,4.8059984 273.581802,4.8059984 C273.061424,4.8059984 272.537026,4.4489345 272.537026,3.9153907 C272.537026,3.3777427 273.059415,3.026835 273.581802,3.026835 Z M268.705511,4.8059984 C268.183123,4.8059984 267.656716,4.4489345 267.656716,3.9153907 C267.656716,3.3797948 268.183123,3.026835 268.705511,3.026835 C269.227899,3.026835 269.575488,3.3797948 269.575488,3.9153907 C269.575488,4.4489345 269.227899,4.8059984 268.705511,4.8059984 Z M284,10.1434145 C284,11.7414081 282.94387,13.157533 281.525522,14.2283114 L282.056639,16 L280.121418,14.9333086 C279.415296,15.1110905 278.705104,15.2868289 278.003052,15.2868289 C274.645413,15.2868289 272,12.983838 272,10.1434145 C272,7.3111648 274.643378,5 278.003052,5 C281.175513,5 284,7.3091213 284,10.1434145 Z" id="wechat-copy-2"></path>
                </g>
            </g>
        </g>
    </g>
</svg>