<?xml version="1.0" encoding="UTF-8"?>
<svg width="16px" height="12px" viewBox="0 0 16 12" version="1.1" xmlns="http://www.w3.org/2000/svg" xmlns:xlink="http://www.w3.org/1999/xlink">
    <!-- Generator: sketchtool 49 (51002) - http://www.bohemiancoding.com/sketch -->
    <title>D24DE5FF-2093-48E4-8887-1B03564ED602</title>
    <desc>Created with sketchtool.</desc>
    <defs></defs>
    <g id="Page-1" stroke="none" stroke-width="1" fill="none" fill-rule="evenodd">
        <g id="Futurocoin_main" transform="translate(-1363.000000, -8682.000000)" fill="#ABE7FF" fill-rule="nonzero">
            <g id="Footer" transform="translate(52.000000, 8628.000000)">
                <g id="social" transform="translate(1212.000000, 52.000000)">
                    <path d="M105,11 L105,5 L110,8 L105,11 Z M114.8,4.8 C114.6,3.5 114,2.6 112.6,2.4 C110.4,2 107,2 107,2 C107,2 103.6,2 101.4,2.4 C100,2.6 99.3,3.5 99.2,4.8 C99,6.1 99,8 99,8 C99,8 99,9.9 99.2,11.2 C99.4,12.5 100,13.4 101.4,13.6 C103.6,14 107,14 107,14 C107,14 110.4,14 112.6,13.6 C114,13.3 114.6,12.5 114.8,11.2 C115,9.9 115,8 115,8 C115,8 115,6.1 114.8,4.8 Z" id="yt-copy"></path>
                </g>
            </g>
        </g>
    </g>
</svg>