<?xml version="1.0" encoding="utf-8"?>
<!-- Generator: Adobe Illustrator 22.0.1, SVG Export Plug-In . SVG Version: 6.00 Build 0)  -->
<svg version="1.1" id="Warstwa_1" xmlns="http://www.w3.org/2000/svg" xmlns:xlink="http://www.w3.org/1999/xlink" x="0px" y="0px"
	 viewBox="0 0 97.3 110" style="enable-background:new 0 0 97.3 110;" xml:space="preserve">
<style type="text/css">
	.st0{fill:none;}
	.st1{fill:#ABE7FF;}
	.st2{fill:#ADE7FE;}
	.st3{fill:none;stroke:#ADE7FE;stroke-width:3;stroke-miterlimit:10;}
	.st4{opacity:0.5;fill:#ABE7FF;enable-background:new    ;}
	.st5{opacity:0.4;fill:#ABE7FF;enable-background:new    ;}
	.st6{fill:#F4A300;}
	.st7{fill:none;stroke:#ADE7FE;stroke-width:4;stroke-miterlimit:10;}
</style>
<g>
	<g>
		<polygon class="st0" points="40.4,19.4 41,19.4 40.7,18.5 		"/>
		<path class="st1" d="M39.7,14.4L36,23.7h2.8l0.6-1.7H42l0.6,1.7h2.8l-3.7-9.3H39.7z M40.4,19.4l0.3-0.9l0.3,0.9H40.4z"/>
		<polygon class="st1" points="45.9,17.1 48,17.1 48,23.7 50.8,23.7 50.8,17.1 52.9,17.1 52.9,14.4 45.9,14.4 		"/>
		<polygon class="st1" points="61.2,14.4 59.4,19.3 57.7,14.4 55.4,14.4 55.4,23.7 57.9,23.7 57.9,22 58.5,23.7 60.3,23.7 60.9,22 
			60.9,23.7 63.4,23.7 63.4,14.4 		"/>
	</g>
	<g>
		<path class="st0" d="M77.6,8.1H22.5c-0.6,0-1.1,0.5-1.1,1.1V28h57.3V9.2C78.7,8.6,78.2,8.1,77.6,8.1z"/>
		<path class="st0" d="M22.7,102.5h54.8c0.7,0,1.3-0.6,1.3-1.3V30.8H21.4v70.4C21.4,101.9,22,102.5,22.7,102.5z"/>
		<path class="st1" d="M18.6,6.3v97.7c0,0.7,0.6,1.3,1.3,1.3h60.4c0.7,0,1.3-0.6,1.3-1.3V6.3c0-0.6-0.5-1.1-1.1-1.1H19.7
			C19.1,5.2,18.6,5.7,18.6,6.3z M21.4,28V9.2c0-0.6,0.5-1.1,1.1-1.1h55.1c0.6,0,1.1,0.5,1.1,1.1V28h1.9v2.8h-1.9v70.4
			c0,0.7-0.6,1.3-1.3,1.3H22.7c-0.7,0-1.3-0.6-1.3-1.3V30.8h-1.9V28H21.4z"/>
		<polygon class="st1" points="19.5,30.8 21.4,30.8 78.7,30.8 80.5,30.8 80.5,28 78.7,28 21.4,28 19.5,28 		"/>
	</g>
	<g>
		<path class="st0" d="M54.5,39H34.1c-3.5,0-6.3,2.8-6.3,6.3v18.4c0,3.5,2.8,6.3,6.3,6.3h20.4c3.5,0,6.3-2.8,6.3-6.3V45.3
			C60.9,41.8,58,39,54.5,39z"/>
		<path class="st1" d="M63.7,45.3c0-5-4.1-9.1-9.1-9.1H34.1c-5,0-9.1,4.1-9.1,9.1v18.4c0,5,4.1,9.1,9.1,9.1h20.4
			c5,0,9.1-4.1,9.1-9.1V45.3z M60.9,45.3v18.4c0,3.5-2.8,6.3-6.3,6.3H34.1c-3.5,0-6.3-2.8-6.3-6.3V45.3c0-3.5,2.8-6.3,6.3-6.3h20.4
			C58,39,60.9,41.8,60.9,45.3z"/>
		<path class="st2" d="M27,84.4h13.8c0.6,0,1.1-0.5,1.1-1.1v-0.7c0-0.6-0.5-1.1-1.1-1.1H27c-0.6,0-1.1,0.5-1.1,1.1v0.7
			C26,83.9,26.5,84.4,27,84.4z"/>
		<path class="st2" d="M27,91h13.8c0.6,0,1.1-0.5,1.1-1.1v-0.7c0-0.6-0.5-1.1-1.1-1.1H27c-0.6,0-1.1,0.5-1.1,1.1v0.7
			C26,90.5,26.5,91,27,91z"/>
		<path class="st1" d="M67.8,38.1v4.7c0,0.5,0.4,1,1,1h4.7c0.5,0,1-0.4,1-1v-4.7c0-0.5-0.4-1-1-1h-4.7
			C68.3,37.1,67.8,37.6,67.8,38.1z"/>
		<path class="st1" d="M51,85.3h2.4c0.6,0,1.1-0.5,1.1-1.1v-2.4c0-0.6-0.5-1.1-1.1-1.1H51c-0.6,0-1.1,0.5-1.1,1.1v2.4
			C49.9,84.8,50.4,85.3,51,85.3z"/>
		<path class="st1" d="M57.5,85.3h2.4c0.6,0,1.1-0.5,1.1-1.1v-2.4c0-0.6-0.5-1.1-1.1-1.1h-2.4c-0.6,0-1.1,0.5-1.1,1.1v2.4
			C56.4,84.8,56.9,85.3,57.5,85.3z"/>
		<path class="st1" d="M64.2,85.3h2.4c0.6,0,1.1-0.5,1.1-1.1v-2.4c0-0.6-0.5-1.1-1.1-1.1h-2.4c-0.6,0-1.1,0.5-1.1,1.1v2.4
			C63.1,84.8,63.6,85.3,64.2,85.3z"/>
		<path class="st1" d="M50.9,91.4h2.4c0.6,0,1.1-0.5,1.1-1.1v-2.4c0-0.6-0.5-1.1-1.1-1.1h-2.4c-0.6,0-1.1,0.5-1.1,1.1v2.4
			C49.8,90.9,50.3,91.4,50.9,91.4z"/>
		<path class="st1" d="M57.4,91.4h2.4c0.6,0,1.1-0.5,1.1-1.1v-2.4c0-0.6-0.5-1.1-1.1-1.1h-2.4c-0.6,0-1.1,0.5-1.1,1.1v2.4
			C56.3,90.9,56.8,91.4,57.4,91.4z"/>
		<path class="st1" d="M64.1,91.4h2.4c0.6,0,1.1-0.5,1.1-1.1v-2.4c0-0.6-0.5-1.1-1.1-1.1h-2.4c-0.6,0-1.1,0.5-1.1,1.1v2.4
			C63,90.9,63.5,91.4,64.1,91.4z"/>
		<path class="st1" d="M50.8,97.5h2.4c0.6,0,1.1-0.5,1.1-1.1V94c0-0.6-0.5-1.1-1.1-1.1h-2.4c-0.6,0-1.1,0.5-1.1,1.1v2.4
			C49.8,97,50.2,97.5,50.8,97.5z"/>
		<path class="st1" d="M57.3,97.5h2.4c0.6,0,1.1-0.5,1.1-1.1V94c0-0.6-0.5-1.1-1.1-1.1h-2.4c-0.6,0-1.1,0.5-1.1,1.1v2.4
			C56.3,97,56.7,97.5,57.3,97.5z"/>
		<path class="st1" d="M64,97.5h2.4c0.6,0,1.1-0.5,1.1-1.1V94c0-0.6-0.5-1.1-1.1-1.1H64c-0.6,0-1.1,0.5-1.1,1.1v2.4
			C62.9,97,63.4,97.5,64,97.5z"/>
		<path class="st1" d="M68.8,62.5h4.7c0.5,0,1-0.4,1-1v-4.7c0-0.5-0.4-1-1-1h-4.7c-0.5,0-1,0.4-1,1v4.7C67.8,62,68.3,62.5,68.8,62.5
			z"/>
		<path class="st1" d="M68.8,71.8h4.7c0.5,0,1-0.4,1-1v-4.7c0-0.5-0.4-1-1-1h-4.7c-0.5,0-1,0.4-1,1v4.7
			C67.8,71.4,68.3,71.8,68.8,71.8z"/>
		<path class="st1" d="M68.8,53.2h4.7c0.5,0,1-0.4,1-1v-4.7c0-0.5-0.4-1-1-1h-4.7c-0.5,0-1,0.4-1,1v4.7
			C67.8,52.7,68.3,53.2,68.8,53.2z"/>
	</g>
</g>
</svg>
