<?xml version="1.0" encoding="UTF-8"?>
<svg width="109px" height="79px" viewBox="0 0 109 79" version="1.1" xmlns="http://www.w3.org/2000/svg" xmlns:xlink="http://www.w3.org/1999/xlink">
    <!-- Generator: sketchtool 49 (51002) - http://www.bohemiancoding.com/sketch -->
    <title>73BA2ECF-CE4D-41F5-88AA-8CDAB82D6039</title>
    <desc>Created with sketchtool.</desc>
    <defs></defs>
    <g id="Page-1" stroke="none" stroke-width="1" fill="none" fill-rule="evenodd">
        <g id="Futurocoin_main" transform="translate(-297.000000, -2710.000000)" fill="#ABE7FF">
            <g id="Timeline-and-dash" transform="translate(-12.000000, 1599.000000)">
                <g id="past-copy-3" transform="translate(309.000000, 1111.000000)">
                    <g id="Group-9">
                        <path d="M34,32 C32.895,32 32,31.2661753 32,30.3619984 L32,27.6380016 C32,26.7330057 32.895,26 34,26 C35.105,26 36,26.7330057 36,27.6380016 L36,30.3619984 C36,31.2661753 35.105,32 34,32" id="Fill-193" opacity="0.5"></path>
                        <path d="M34,51 C32.895,51 32,50.2660751 32,49.3617747 L32,46.6382253 C32,45.7339249 32.895,45 34,45 C35.105,45 36,45.7339249 36,46.6382253 L36,49.3617747 C36,50.2660751 35.105,51 34,51" id="Fill-194" opacity="0.5"></path>
                        <path d="M34,42 C32.895,42 32,41.2667941 32,40.3615511 L32,37.6384489 C32,36.7340251 32.895,36 34,36 C35.105,36 36,36.7340251 36,37.6384489 L36,40.3615511 C36,41.2667941 35.105,42 34,42" id="Fill-195" opacity="0.5"></path>
                        <path d="M74,32 C72.896,32 72,31.2661753 72,30.3619984 L72,27.6380016 C72,26.7330057 72.896,26 74,26 C75.105,26 76,26.7330057 76,27.6380016 L76,30.3619984 C76,31.2661753 75.105,32 74,32" id="Fill-196" opacity="0.5"></path>
                        <path d="M74,51 C72.896,51 72,50.2660751 72,49.3617747 L72,46.6382253 C72,45.7339249 72.896,45 74,45 C75.105,45 76,45.7339249 76,46.6382253 L76,49.3617747 C76,50.2660751 75.105,51 74,51" id="Fill-197" opacity="0.5"></path>
                        <path d="M74,42 C72.896,42 72,41.2667941 72,40.3615511 L72,37.6384489 C72,36.7340251 72.896,36 74,36 C75.105,36 76,36.7340251 76,37.6384489 L76,40.3615511 C76,41.2667941 75.105,42 74,42" id="Fill-198" opacity="0.400000006"></path>
                        <path d="M79.3925535,10 C78.9820048,10 78.5706528,9.84102397 78.2565148,9.52225664 L72.0870374,3.2610468 L35.5361577,3.2610468 L29.7426818,9.13989891 C29.1152092,9.77661829 28.0988804,9.77661829 27.4706044,9.13989891 C26.8431319,8.50317952 26.8431319,7.47105821 27.4706044,6.83433882 L33.7348856,0.477743356 C34.0361689,0.172020218 34.4451107,0 34.8709243,0 L72.7522708,0 C73.1780844,0 73.5870262,0.172020218 73.8883095,0.477743356 L80.5293956,7.21669656 C81.1568681,7.85341595 81.1568681,8.88553726 80.5293956,9.52225664 C80.2152576,9.84102397 79.8039055,10 79.3925535,10" id="Fill-199"></path>
                        <path d="M72.7522708,79 L34.8709243,79 C34.4451107,79 34.0361689,78.8279728 33.7348856,78.5222372 L27.4706044,72.1661979 C26.8431319,71.5294525 26.8431319,70.4981044 27.4706044,69.8605438 C28.0988804,69.2237985 29.1152092,69.2237985 29.7426818,69.8605438 L35.5361577,75.7388203 L72.0870374,75.7388203 L78.2565148,69.4781705 C78.8847908,68.8406098 79.9011196,68.8406098 80.5293956,69.4781705 C81.1568681,70.1149158 81.1568681,71.1470792 80.5293956,71.7838245 L73.8883095,78.5222372 C73.5870262,78.8279728 73.1780844,79 72.7522708,79" id="Fill-200"></path>
                        <path d="M101.999143,46 C98.1399706,46 95,42.8593645 95,38.9995714 C95,35.1397784 98.1399706,32 101.999143,32 C105.859172,32 109,35.1397784 109,38.9995714 C109,42.8593645 105.859172,46 101.999143,46 Z M101.999143,35.4286414 C100.030125,35.4286414 98.4288513,37.0306741 98.4288513,38.9995714 C98.4288513,40.9693259 100.030125,42.5713586 101.999143,42.5713586 C103.969018,42.5713586 105.571149,40.9693259 105.571149,38.9995714 C105.571149,37.0306741 103.969018,35.4286414 101.999143,35.4286414 Z" id="Fill-201"></path>
                        <path d="M96.0008571,72 C92.1404432,72 89,68.8593645 89,64.9995714 C89,61.1397784 92.1404432,58 96.0008571,58 C99.8604139,58 103,61.1397784 103,64.9995714 C103,68.8593645 99.8604139,72 96.0008571,72 Z M96.0008571,61.4286414 C94.0312232,61.4286414 92.4284315,63.0306741 92.4284315,64.9995714 C92.4284315,66.9693259 94.0312232,68.5713586 96.0008571,68.5713586 C97.9696339,68.5713586 99.5715685,66.9693259 99.5715685,64.9995714 C99.5715685,63.0306741 97.9696339,61.4286414 96.0008571,61.4286414 Z" id="Fill-202"></path>
                        <path d="M96.0008571,21 C92.1404432,21 89,17.8593645 89,13.9995714 C89,10.1397784 92.1404432,7 96.0008571,7 C99.8604139,7 103,10.1397784 103,13.9995714 C103,17.8593645 99.8604139,21 96.0008571,21 Z M96.0008571,10.4286414 C94.0312232,10.4286414 92.4284315,12.0306741 92.4284315,13.9995714 C92.4284315,15.9693259 94.0312232,17.5713586 96.0008571,17.5713586 C97.9696339,17.5713586 99.5715685,15.9693259 99.5715685,13.9995714 C99.5715685,12.0306741 97.9696339,10.4286414 96.0008571,10.4286414 Z" id="Fill-203"></path>
                        <path d="M7.00085721,46 C3.14082782,46 0,42.8593645 0,38.9995714 C0,35.1397784 3.14082782,32 7.00085721,32 C10.8600294,32 14,35.1397784 14,38.9995714 C14,42.8593645 10.8600294,46 7.00085721,46 Z M7.00085721,35.4286414 C5.03098212,35.4286414 3.42885133,37.0306741 3.42885133,38.9995714 C3.42885133,40.9693259 5.03098212,42.5713586 7.00085721,42.5713586 C8.96987509,42.5713586 10.5711487,40.9693259 10.5711487,38.9995714 C10.5711487,37.0306741 8.96987509,35.4286414 7.00085721,35.4286414 Z" id="Fill-204"></path>
                        <path d="M12,72 C8.14130036,72 5,68.8593645 5,64.9995714 C5,61.1397784 8.14130036,58 12,58 C15.8595568,58 19,61.1397784 19,64.9995714 C19,68.8593645 15.8595568,72 12,72 Z M12,61.4286414 C10.0312232,61.4286414 8.42843149,63.0306741 8.42843149,64.9995714 C8.42843149,66.9693259 10.0312232,68.5713586 12,68.5713586 C13.9696339,68.5713586 15.5715685,66.9693259 15.5715685,64.9995714 C15.5715685,63.0306741 13.9696339,61.4286414 12,61.4286414 Z" id="Fill-205"></path>
                        <path d="M12,21 C8.14130036,21 5,17.8593645 5,13.9995714 C5,10.1397784 8.14130036,7 12,7 C15.8595568,7 19,10.1397784 19,13.9995714 C19,17.8593645 15.8595568,21 12,21 Z M12,10.4286414 C10.0312232,10.4286414 8.42843149,12.0306741 8.42843149,13.9995714 C8.42843149,15.9693259 10.0312232,17.5713586 12,17.5713586 C13.9696339,17.5713586 15.5715685,15.9693259 15.5715685,13.9995714 C15.5715685,12.0306741 13.9696339,10.4286414 12,10.4286414 Z" id="Fill-206"></path>
                        <path d="M26,50 L13.7041996,50 C12.7634814,50 12,50.7452865 12,51.663586 L12,59 C12.5470481,58.8644177 13.1153987,58.7853974 13.7041996,58.7853974 C14.2938527,58.7853974 14.8622033,58.8644177 15.4083993,59 L15.4083993,53.3271719 L26,53.3271719 L26,50" id="Fill-207"></path>
                        <path d="M25,42 L25,38 L13,38 C13.1389365,38.642 13.2212693,39.309 13.2212693,40 C13.2212693,40.692 13.1389365,41.359 13,42 L25,42" id="Fill-208"></path>
                        <path d="M26,26.6725206 L15.4083993,26.6725206 L15.4083993,21 C14.8622033,21.1347629 14.2938527,21.2146224 13.7041996,21.2146224 C13.1153987,21.2146224 12.5470481,21.1347629 12,21 L12,28.3362603 C12,29.2554765 12.7634814,30 13.7041996,30 L26,30 L26,26.6725206" id="Fill-209"></path>
                        <path d="M69.7194118,69 L37.2821963,69 C36.8552427,69 36.4467824,68.8303489 36.1452615,68.5288362 L24.4711766,56.8558735 C24.1696558,56.5543609 24,56.1451077 24,55.7189697 L24,23.2802262 C24,22.8540883 24.1696558,22.4448351 24.4711766,22.1433224 L36.1444575,10.4711638 C36.4459784,10.1696511 36.8544387,10 37.2813922,10 L69.7202159,10 C70.1471695,10 70.5564338,10.1696511 70.8579547,10.4711638 L82.5288234,22.1425184 C82.8303442,22.4440311 83,22.8532843 83,23.2794222 L83,55.7197738 C83,56.1459117 82.8303442,56.5551649 82.5288234,56.8566776 L70.8563466,68.5288362 C70.5548257,68.8303489 70.1455613,69 69.7194118,69 Z M37.9479544,65.7838648 L69.0528496,65.7838648 L79.7837772,55.0540338 L79.7837772,23.9459662 L69.0544577,13.2161352 L37.9471504,13.2161352 L27.2162228,23.9467702 L27.2162228,55.0532298 L37.9479544,65.7838648 Z" id="Fill-210"></path>
                        <path d="M101.999143,46 C98.1399706,46 95,42.8593645 95,38.9995714 C95,35.1397784 98.1399706,32 101.999143,32 C105.859172,32 109,35.1397784 109,38.9995714 C109,42.8593645 105.859172,46 101.999143,46 Z M101.999143,35.4286414 C100.030125,35.4286414 98.4288513,37.0306741 98.4288513,38.9995714 C98.4288513,40.9693259 100.030125,42.5713586 101.999143,42.5713586 C103.969018,42.5713586 105.571149,40.9693259 105.571149,38.9995714 C105.571149,37.0306741 103.969018,35.4286414 101.999143,35.4286414 Z" id="Fill-211"></path>
                        <path d="M96.0008571,72 C92.1404432,72 89,68.8593645 89,64.9995714 C89,61.1397784 92.1404432,58 96.0008571,58 C99.8604139,58 103,61.1397784 103,64.9995714 C103,68.8593645 99.8604139,72 96.0008571,72 Z M96.0008571,61.4286414 C94.0312232,61.4286414 92.4284315,63.0306741 92.4284315,64.9995714 C92.4284315,66.9693259 94.0312232,68.5713586 96.0008571,68.5713586 C97.9696339,68.5713586 99.5715685,66.9693259 99.5715685,64.9995714 C99.5715685,63.0306741 97.9696339,61.4286414 96.0008571,61.4286414 Z" id="Fill-212"></path>
                        <path d="M96.0008571,21 C92.1404432,21 89,17.8593645 89,13.9995714 C89,10.1397784 92.1404432,7 96.0008571,7 C99.8604139,7 103,10.1397784 103,13.9995714 C103,17.8593645 99.8604139,21 96.0008571,21 Z M96.0008571,10.4286414 C94.0312232,10.4286414 92.4284315,12.0306741 92.4284315,13.9995714 C92.4284315,15.9693259 94.0312232,17.5713586 96.0008571,17.5713586 C97.9696339,17.5713586 99.5715685,15.9693259 99.5715685,13.9995714 C99.5715685,12.0306741 97.9696339,10.4286414 96.0008571,10.4286414 Z" id="Fill-213"></path>
                        <path d="M94.7945265,40 C94.7945265,39.309 94.8709818,38.642 95,38 L84,38 L84,42 L95,42 C94.8709818,41.359 94.7945265,40.692 94.7945265,40" id="Fill-214"></path>
                        <path d="M94.5538462,59 C95.1069538,58.8644177 95.6816,58.7853974 96.2769231,58.7853974 C96.8731077,58.7853974 97.4477538,58.8644177 98,59 L98,51.663586 C98,50.7452865 97.2289231,50 96.2769231,50 L84,50 L84,53.3271719 L94.5538462,53.3271719 L94.5538462,59" id="Fill-215"></path>
                        <path d="M96.2769231,21.2146224 C95.6816,21.2146224 95.1069538,21.1347629 94.5538462,21 L94.5538462,26.6725206 L84,26.6725206 L84,30 L96.2769231,30 C97.2289231,30 98,29.2554765 98,28.3362603 L98,21 C97.4477538,21.1347629 96.8731077,21.2146224 96.2769231,21.2146224" id="Fill-216"></path>
                    </g>
                </g>
            </g>
        </g>
    </g>
</svg>