<?xml version="1.0" encoding="UTF-8"?>
<svg width="199px" height="66px" viewBox="0 0 199 66" version="1.1" xmlns="http://www.w3.org/2000/svg" xmlns:xlink="http://www.w3.org/1999/xlink">
    <!-- Generator: sketchtool 49 (51002) - http://www.bohemiancoding.com/sketch -->
    <title>F404D964-E7DB-456A-950D-489FC1E9C346</title>
    <desc>Created with sketchtool.</desc>
    <defs>
        <polygon id="path-1" points="0 65.9879084 198.92792 65.9879084 198.92792 0 0 0"></polygon>
    </defs>
    <g id="Page-1" stroke="none" stroke-width="1" fill="none" fill-rule="evenodd">
        <g id="Futurocoin_main" transform="translate(-42.000000, -31.000000)">
            <g id="FTO_logo" transform="translate(42.000000, 31.000000)">
                <path d="M33.0094022,6.04580153e-05 C28.7254585,6.04580153e-05 24.5474666,0.813019237 20.5914595,2.4163658 C16.4922006,4.07805435 12.8170517,6.51642687 9.66823455,9.66366962 C6.51931662,12.8111139 4.07990324,16.4845429 2.41753749,20.5819841 C0.813339412,24.5359383 0,28.711975 0,32.9939139 C0,37.2760544 0.813339412,41.4519902 2.41753749,45.4060452 C4.07990324,49.5033856 6.51931662,53.1768147 9.66823455,56.3242589 C12.8170517,59.4715017 16.4922006,61.9098742 20.5914595,63.571462 C24.5474666,65.1749093 28.7254585,65.9878681 33.0094022,65.9878681 C37.293346,65.9878681 41.4713379,65.1749093 45.427345,63.571462 C49.5266039,61.9098742 53.2017528,59.4715017 56.3505699,56.3242589 C59.499387,53.1768147 61.9389012,49.5033856 63.601267,45.4060452 C65.2053642,41.4519902 66.0188045,37.2760544 66.0188045,32.9939139 C66.0188045,28.711975 65.2053642,24.5359383 63.601267,20.5819841 C61.9389012,16.4845429 59.499387,12.8111139 56.3504691,9.66366962 C53.2017528,6.51642687 49.5266039,4.07805435 45.427345,2.41646656 C41.4713379,0.813019237 37.293346,6.04580153e-05 33.0094022,6.04580153e-05 M33.0094022,7.05349557 C39.6513045,7.05349557 46.2931059,9.58608183 51.3606499,14.6512544 C61.4958389,24.7815994 61.4958389,41.2062284 51.3606499,51.3366742 C46.2931059,56.4019475 39.6513045,58.934433 33.0094022,58.934433 C26.3675,58.934433 19.7255978,56.4019475 14.6580537,51.3366742 C4.52296555,41.2062284 4.52296555,24.7815994 14.6580537,14.6512544 C19.7255978,9.58608183 26.3675,7.05349557 33.0094022,7.05349557" id="Fill-1" fill="#F4A300"></path>
                <path d="M41.7895665,41.7700195 C37.2122641,46.3450791 29.9214444,46.5938638 25.0481623,42.5178852 C24.7670017,42.2827035 24.4933011,42.0340195 24.2292783,41.7700195 C19.3878522,36.93096 19.3878522,29.0571096 24.2292783,24.2179493 C24.458219,23.989015 24.6940148,23.7711646 24.9358593,23.5638944 C27.251679,21.5802669 30.1301222,20.5886547 33.009372,20.5886547 C36.1886339,20.5886547 39.3691055,21.7987218 41.7895665,24.2179493 C42.6538152,25.0817936 43.3628158,26.0427737 43.9185842,27.0654211 L49.3998548,22.577018 C48.6445822,21.3949631 47.7555341,20.2861631 46.7393639,19.2704684 C43.0719774,15.6047982 38.1958725,13.5860043 33.009372,13.5860043 C27.9108791,13.5860043 23.1133056,15.5380928 19.4680974,19.0864745 C19.4050908,19.1477386 19.341681,19.2082974 19.2794809,19.2704684 C15.6120944,22.9362394 13.5923553,27.8099615 13.5923553,32.993934 C13.5923553,38.1781081 15.6120944,43.051931 19.2794809,46.7175005 C22.9468674,50.3831707 27.8228715,52.4019646 33.009372,52.4019646 C38.1958725,52.4019646 43.0719774,50.3831707 46.7393639,46.7175005 C47.7206536,45.7366699 48.5827854,44.6686791 49.3210209,43.5319676 L43.8487225,39.0509203 C43.3038416,40.025705 42.6176243,40.9423493 41.7895665,41.7700195" id="Fill-3" fill="#F4A300"></path>
                <path d="M40.0209565,29.04264 L32.8259069,29.04264 L32.8259069,32.9939744 L35.5195644,32.9939744 L39.5199282,36.2695896 L32.8596784,36.2695896 L32.8596784,41.1690064 C28.3426607,41.1690064 24.6809196,37.5088782 24.6809196,32.9939744 C24.6809196,28.4790705 28.3426607,24.8190431 32.8596784,24.8190431 C35.9427671,24.8190431 38.6268476,26.5247652 40.0209565,29.04264" id="Fill-5" fill="#F4A300"></path>
                <polygon id="Fill-7" fill="#F4A300" points="79.4839469 41.1689762 79.4839469 24.5368754 91.2591217 24.5368754 91.2591217 27.6538892 83.0264292 27.6538892 83.0264292 31.1449365 91.084417 31.1449365 91.084417 34.2617487 83.0264292 34.2617487 83.0264292 41.1689762"></polygon>
                <path d="M101.287472,41.1689762 L101.287472,39.6478525 C100.464253,40.5455533 99.0172183,41.4682434 97.0464732,41.4682434 C94.4020111,41.4682434 93.1546824,40.0218861 93.1546824,37.6779289 L93.1546824,29.125135 L96.3229559,29.125135 L96.3229559,36.4311838 C96.3229559,38.1019411 97.196076,38.6504968 98.5432072,38.6504968 C99.7656358,38.6504968 100.738659,37.977196 101.287472,37.2791075 L101.287472,29.125135 L104.455846,29.125135 L104.455846,41.1689762 L101.287472,41.1689762 Z" id="Fill-9" fill="#F4A300"></path>
                <path d="M107.748409,38.1517887 L107.748409,31.8929734 L105.752663,31.8929734 L105.752663,29.1251047 L107.748409,29.1251047 L107.748409,25.8335689 L110.916783,25.8335689 L110.916783,29.1251047 L113.36164,29.1251047 L113.36164,31.8929734 L110.916783,31.8929734 L110.916783,37.3039658 C110.916783,38.0770223 111.315892,38.6504666 112.014408,38.6504666 C112.48842,38.6504666 112.93753,38.4759444 113.112033,38.276433 L113.785649,40.6951566 C113.311739,41.1190681 112.463418,41.4682131 111.141187,41.4682131 C108.920936,41.4682131 107.748409,40.3211231 107.748409,38.1517887" id="Fill-11" fill="#F4A300"></path>
                <path d="M123.165626,41.1689762 L123.165626,39.6478525 C122.342408,40.5455533 120.895373,41.4682434 118.924628,41.4682434 C116.280166,41.4682434 115.032837,40.0218861 115.032837,37.6779289 L115.032837,29.125135 L118.201111,29.125135 L118.201111,36.4311838 C118.201111,38.1019411 119.074231,38.6504968 120.421362,38.6504968 C121.643791,38.6504968 122.616814,37.977196 123.165626,37.2791075 L123.165626,29.125135 L126.334001,29.125135 L126.334001,41.1689762 L123.165626,41.1689762 Z" id="Fill-13" fill="#F4A300"></path>
                <path d="M128.977888,41.1689762 L128.977888,29.125135 L132.146162,29.125135 L132.146162,30.7459136 C133.019282,29.6985792 134.491116,28.8258678 135.988051,28.8258678 L135.988051,31.9177915 C135.763546,31.8679136 135.48914,31.843025 135.114931,31.843025 C134.067006,31.843025 132.670074,32.4415594 132.146162,33.2145151 L132.146162,41.1689762 L128.977888,41.1689762 Z" id="Fill-15" fill="#F4A300"></path>
                <path d="M146.141084,35.1345911 C146.141084,33.2643224 145.043358,31.6435438 143.047612,31.6435438 C141.076766,31.6435438 139.97914,33.2643224 139.97914,35.1345911 C139.97914,37.0297484 141.076766,38.650527 143.047612,38.650527 C145.043358,38.650527 146.141084,37.0297484 146.141084,35.1345911 M136.686063,35.1345911 C136.686063,31.718411 139.081019,28.825898 143.047612,28.825898 C147.039205,28.825898 149.434161,31.718411 149.434161,35.1345911 C149.434161,38.5506705 147.039205,41.4681728 143.047612,41.4681728 C139.081019,41.4681728 136.686063,38.5506705 136.686063,35.1345911" id="Fill-17" fill="#F4A300"></path>
                <path d="M150.581274,32.8654507 C150.581274,27.7286354 154.448063,24.2626782 159.46248,24.2626782 C163.104866,24.2626782 165.225315,26.2326018 166.397842,28.3271698 L163.354271,29.8233041 C162.655654,28.4767026 161.15892,27.4045805 159.46248,27.4045805 C156.418909,27.4045805 154.223558,29.7235484 154.223558,32.8654507 C154.223558,36.007353 156.418909,38.3263209 159.46248,38.3263209 C161.15892,38.3263209 162.655654,37.254098 163.354271,35.9074965 L166.397842,37.3787423 C165.225315,39.4484217 163.104866,41.4682232 159.46248,41.4682232 C154.448063,41.4682232 150.581274,37.9771759 150.581274,32.8654507" id="Fill-19" fill="#F4A300"></path>
                <path d="M176.625736,35.1345911 C176.625736,33.2643224 175.52801,31.6435438 173.532264,31.6435438 C171.561519,31.6435438 170.463793,33.2643224 170.463793,35.1345911 C170.463793,37.0297484 171.561519,38.650527 173.532264,38.650527 C175.52801,38.650527 176.625736,37.0297484 176.625736,35.1345911 M167.170716,35.1345911 C167.170716,31.718411 169.565672,28.825898 173.532264,28.825898 C177.523857,28.825898 179.918813,31.718411 179.918813,35.1345911 C179.918813,38.5506705 177.523857,41.4681728 173.532264,41.4681728 C169.565672,41.4681728 167.170716,38.5506705 167.170716,35.1345911" id="Fill-21" fill="#F4A300"></path>
                <mask id="mask-2" fill="white">
                    <use xlink:href="#path-1"></use>
                </mask>
                <g id="Clip-24"></g>
                <path d="M181.789524,41.1689863 L184.957798,41.1689863 L184.957798,29.125145 L181.789524,29.125145 L181.789524,41.1689863 Z M181.490117,25.9333649 C181.490117,24.8860305 182.338337,24.0630962 183.361161,24.0630962 C184.408884,24.0630962 185.257104,24.8860305 185.257104,25.9333649 C185.257104,26.9805985 184.408884,27.8284214 183.361161,27.8284214 C182.338337,27.8284214 181.490117,26.9805985 181.490117,25.9333649 Z" id="Fill-23" fill="#F4A300" mask="url(#mask-2)"></path>
                <path d="M195.734646,41.1689762 L195.734646,33.8877151 C195.734646,32.2170586 194.861526,31.6436144 193.514395,31.6436144 C192.267066,31.6436144 191.318943,32.3417029 190.77013,33.039993 L190.77013,41.1689762 L187.601857,41.1689762 L187.601857,29.125135 L190.77013,29.125135 L190.77013,30.6710464 C191.543549,29.7733456 193.040283,28.8258678 194.986228,28.8258678 C197.655591,28.8258678 198.92792,30.3220021 198.92792,32.6658586 L198.92792,41.1689762 L195.734646,41.1689762 Z" id="Fill-25" fill="#F4A300" mask="url(#mask-2)"></path>
            </g>
        </g>
    </g>
</svg>