<?xml version="1.0" encoding="UTF-8"?>
<svg width="104px" height="95px" viewBox="0 0 104 95" version="1.1" xmlns="http://www.w3.org/2000/svg" xmlns:xlink="http://www.w3.org/1999/xlink">
    <!-- Generator: sketchtool 49 (51002) - http://www.bohemiancoding.com/sketch -->
    <title>F0AF0A17-D3E7-428F-935E-6DF648D2173B</title>
    <desc>Created with sketchtool.</desc>
    <defs></defs>
    <g id="Page-1" stroke="none" stroke-width="1" fill="none" fill-rule="evenodd">
        <g id="Futurocoin_main" transform="translate(-1199.000000, -3292.000000)" fill="#ABE7FF">
            <g id="Timeline-and-dash" transform="translate(-12.000000, 1599.000000)">
                <g id="past-copy-6" transform="translate(838.000000, 1693.000000)">
                    <path d="M409.833716,0 C408.63714,0 407.667105,0.966668182 407.667105,2.15909091 L407.667105,15.1136364 C407.667105,16.30606 408.63714,17.2727273 409.833716,17.2727273 C411.030291,17.2727273 412.000326,16.30606 412.000326,15.1136364 L412.000326,2.15909091 C412.000326,0.966668182 411.030291,0 409.833716,0 Z M388.19723,2.18860978 C387.642751,2.18860978 387.088421,2.39955016 386.665368,2.82115584 C385.819263,3.66432402 385.819263,5.03107715 386.665368,5.87424533 L395.331812,14.510609 C396.177917,15.353778 397.549429,15.353778 398.395534,14.510609 C399.241639,13.6674408 399.241639,12.3006877 398.395534,11.4575195 L389.729091,2.82115584 C389.306039,2.39957175 388.751709,2.18860978 388.19723,2.18860978 Z M456.720526,4.31818182 C455.313421,4.30522727 453.879133,4.56763498 452.501559,5.13627475 L429.519406,14.6244673 C424.008976,16.8989811 421.370736,23.2405495 423.654322,28.7344643 L433.171328,51.6284172 C435.454719,57.1228501 441.820107,59.751878 447.33047,57.477362 L470.312622,47.989168 C475.823052,45.7146736 478.461314,39.3730868 476.177707,33.879172 L466.6607,10.9852183 C464.948167,6.86439902 460.941864,4.35531818 456.720526,4.31818182 Z M456.712063,8.61949574 C459.247279,8.62597301 461.612698,10.1245723 462.657546,12.6382723 L472.170322,35.532226 C473.563366,38.8837612 472.015396,42.6080894 468.653813,43.995694 L445.671658,53.4838859 C442.31001,54.8715336 438.567613,53.32692 437.174482,49.9753632 L427.661707,27.0814103 C426.268663,23.7298751 427.816613,20.0055253 431.178216,18.6179424 L454.16037,9.12974959 C455.000777,8.78271891 455.866998,8.6174446 456.712063,8.61949574 Z M453.77529,14.7889294 C451.980411,14.7889294 450.525374,16.2389157 450.525373,18.0275649 C450.525373,19.8162144 451.98041,21.2662013 453.77529,21.2662013 C455.570169,21.2662013 457.025206,19.8162144 457.025206,18.0275649 C457.025205,16.2389157 455.570168,14.7889294 453.77529,14.7889294 Z M437.762682,21.4011444 C435.967803,21.4011444 434.512766,22.8511313 434.512766,24.6397808 C434.512766,26.4284303 435.967803,27.8784172 437.762682,27.8784172 C439.557561,27.8784172 441.012598,26.4284303 441.012598,24.6397808 C441.012598,22.8511313 439.557561,21.4011444 437.762682,21.4011444 Z M386.000997,23.75 C384.804422,23.75 383.834387,24.7166682 383.834387,25.9090909 C383.834387,27.1015136 384.804422,28.0681818 386.000997,28.0681818 L399.000662,28.0681818 C400.197238,28.0681818 401.167273,27.1015136 401.167273,25.9090909 C401.167273,24.7166682 400.197238,23.75 399.000662,23.75 L386.000997,23.75 Z M457.922317,24.7620739 C456.127438,24.7620739 454.672401,26.2120608 454.672401,28.0007102 C454.672401,29.7893597 456.127438,31.2393466 457.922317,31.2393466 C459.717196,31.2393466 461.172233,29.7893597 461.172233,28.0007102 C461.172233,26.2120608 459.717196,24.7620739 457.922317,24.7620739 Z M441.909712,31.3742898 C440.114832,31.3742898 438.659795,32.8242767 438.659795,34.6129261 C438.659795,36.4015756 440.114832,37.8515625 441.909712,37.8515625 C443.704591,37.8515625 445.159628,36.4015756 445.159628,34.6129261 C445.159628,32.8242767 443.704591,31.3742898 441.909712,31.3742898 Z M462.069346,34.7352192 C460.274467,34.7352192 458.81943,36.1852061 458.81943,37.9738556 C458.81943,39.762505 460.274467,41.2124919 462.069346,41.2124919 C463.864225,41.2124919 465.319262,39.762505 465.319262,37.9738556 C465.319262,36.1852061 463.864225,34.7352192 462.069346,34.7352192 Z M393.279455,36.7045455 C389.058139,36.741725 385.051988,39.25115 383.339282,43.3715828 L373.822275,66.2655357 C371.53869,71.7594505 374.176996,78.1010092 379.687358,80.3755316 L402.669512,89.8637257 C408.179874,92.1382481 414.545067,89.5086912 416.828653,84.0147808 L426.34566,61.120828 C428.629267,55.6269132 425.990938,49.2853566 420.480575,47.010832 L397.498423,37.522638 C396.120827,36.9540068 394.686561,36.6921544 393.279455,36.7045455 Z M393.287919,41.0058605 C394.132984,41.0038115 394.999205,41.1692173 395.839611,41.5161141 L418.821766,51.004306 C422.18339,52.3918868 423.731384,56.1161934 422.338275,59.467774 L412.825499,82.3617268 C411.43239,85.7133095 407.689928,87.2578325 404.328323,85.8702495 L381.34617,76.3820576 C377.984543,74.9944747 376.43655,71.2701745 377.829659,67.9185897 L387.342434,45.0246368 C388.387282,42.5109498 390.752724,41.0119988 393.287919,41.0058605 Z M446.056739,41.3474351 C444.26186,41.3474351 442.806823,42.797422 442.806823,44.5860715 C442.806823,46.374721 444.26186,47.8247078 446.056739,47.8247078 C447.851618,47.8247078 449.306655,46.374721 449.306655,44.5860715 C449.306655,42.797422 447.851618,41.3474351 446.056739,41.3474351 Z M400.083967,60.4545455 C398.289088,60.4545455 396.834051,61.9045323 396.834051,63.6931818 C396.834051,65.4818313 398.289088,66.9318182 400.083967,66.9318182 C401.878846,66.9318182 403.333883,65.4818313 403.333883,63.6931818 C403.333883,61.9045323 401.878846,60.4545455 400.083967,60.4545455 Z M448.832709,66.9318182 C447.650498,66.9490909 446.666098,67.90885 446.666098,69.0909091 C446.666098,70.2833318 447.636133,71.25 448.832709,71.25 L461.832373,71.25 C463.028949,71.25 463.998984,70.2833318 463.998984,69.0909091 C463.998984,67.8984864 463.028949,66.9318182 461.832373,66.9318182 L448.832709,66.9318182 Z M437.999655,77.7272727 C436.813479,77.7272727 435.849727,78.7082557 435.833044,79.8863636 L435.833044,92.8409091 C435.833044,94.0333318 436.803079,95 437.999655,95 C439.196231,95 440.166266,94.0333318 440.166266,92.8409091 L440.166266,79.8863636 C440.166266,78.6939409 439.196231,77.7272727 437.999655,77.7272727 Z M451.028941,79.9158827 C450.474462,79.9158827 449.920133,80.1268238 449.49708,80.5484294 C448.661375,81.3812556 448.656243,82.7224116 449.47169,83.567782 L449.467459,83.5719988 L449.49708,83.6015178 L458.133902,92.2083624 C458.980006,93.0515306 460.38114,93.080661 461.227245,92.2378815 C462.07335,91.3947133 462.044118,89.9984422 461.197623,89.155274 L452.560802,80.5484294 L452.53118,80.5189103 L452.526949,80.523127 C452.108078,80.1220543 451.569771,79.9158827 451.028941,79.9158827 Z" id="futurodice"></path>
                </g>
            </g>
        </g>
    </g>
</svg>