<?xml version="1.0" encoding="UTF-8"?>
<svg width="96px" height="108px" viewBox="0 0 96 108" version="1.1" xmlns="http://www.w3.org/2000/svg" xmlns:xlink="http://www.w3.org/1999/xlink">
    <!-- Generator: sketchtool 49 (51002) - http://www.bohemiancoding.com/sketch -->
    <title>1E0FC873-D644-4560-BCC3-5617B9E41936</title>
    <desc>Created with sketchtool.</desc>
    <defs></defs>
    <g id="Page-1" stroke="none" stroke-width="1" fill="none" fill-rule="evenodd">
        <g id="Futurocoin_main" transform="translate(-1243.000000, -2363.000000)" fill-rule="nonzero">
            <g id="Timeline-and-dash" transform="translate(-12.000000, 1599.000000)">
                <g id="past-copy-2" transform="translate(838.000000, 764.000000)">
                    <g id="phone_ic" transform="translate(417.000000, 0.000000)">
                        <g id="Group" opacity="0.5" transform="translate(8.000000, 25.000000)" fill="#0F1B41">
                            <path d="M36.8,30.4 C37,30.4 37.1,30.4 37.3,30.3 L40.5,28.6 L44,29.5 C44.1,29.5 44.2,29.5 44.2,29.5 C44.6,29.5 45.1,29.2 45.2,28.7 C45.3,28.2 45,27.6 44.5,27.5 L41.4,26.7 L41.4,23.5 C41.4,22.9 41,22.5 40.4,22.5 C39.8,22.5 39.4,22.9 39.4,23.5 L39.4,27 L36.4,28.6 C35.9,28.9 35.7,29.5 36,29.9 C36.1,30.2 36.4,30.4 36.8,30.4 Z" id="Shape"></path>
                            <path d="M29.1,34.4 C29.3,34.4 29.4,34.4 29.6,34.3 L33.4,32.3 C33.9,32 34.1,31.4 33.8,31 C33.5,30.5 32.9,30.3 32.5,30.6 L28.7,32.6 C28.2,32.9 28,33.5 28.3,33.9 C28.4,34.2 28.7,34.4 29.1,34.4 Z" id="Shape"></path>
                            <path d="M20.8,37.5 C20.8,37.6 20.8,37.7 20.9,37.7 C20.9,37.7 20.9,37.7 20.9,37.8 C20.9,37.8 20.9,37.9 21,37.9 C21,37.9 21,38 21.1,38 C21.1,38.1 21.2,38.1 21.3,38.1 C21.3,38.1 21.3,38.1 21.4,38.2 C21.5,38.3 21.6,38.3 21.7,38.3 C21.7,38.3 21.7,38.3 21.7,38.3 L50.3,45.3 C50.4,45.3 50.5,45.3 50.5,45.3 C50.5,45.3 50.5,45.3 50.5,45.3 C50.5,45.3 50.5,45.3 50.5,45.3 C50.6,45.3 50.7,45.3 50.8,45.3 C50.8,45.3 50.9,45.3 50.9,45.3 C50.9,45.3 51,45.3 51,45.3 L69.6,35.6 C69.6,35.6 69.6,35.6 69.7,35.6 C69.7,35.6 69.8,35.6 69.8,35.5 C69.8,35.5 69.8,35.5 69.8,35.5 C69.8,35.5 69.9,35.5 69.9,35.4 C69.9,35.4 70,35.3 70,35.2 C70,35.2 70,35.1 70.1,35.1 C70.1,35.1 70.1,35.1 70.1,35 C70.1,34.9 70.1,34.9 70.1,34.8 C70.1,34.8 70.1,34.7 70.1,34.7 L70.1,30.7 L70.1,23.6 L70.1,16.5 L70.1,9.4 L70.1,5.4 C70.1,5.3 70.1,5.2 70,5 C70,5 70,5 70,5 C70,5 70,5 70,4.9 C70,4.8 69.9,4.7 69.8,4.6 C69.8,4.6 69.7,4.5 69.7,4.5 C69.6,4.5 69.6,4.4 69.5,4.4 C69.5,4.4 69.4,4.4 69.3,4.3 C69.3,4.3 69.2,4.3 69.2,4.3 L65.2,3.8 C65.2,3.8 65.2,3.8 65.2,3.8 L58.3,2.9 C58.3,2.9 58.3,2.9 58.3,2.9 L54.9,2.4 L40.6,0.4 C40.6,0.4 40.6,0.4 40.6,0.4 C40.5,0.4 40.5,0.4 40.4,0.4 C40.3,0.4 40.3,0.4 40.2,0.4 C40.2,0.4 40.2,0.4 40.2,0.4 C40.2,0.4 40.2,0.4 40.2,0.4 L21.4,7 C21.3,7 21.3,7.1 21.2,7.1 C21.2,7.1 21.1,7.1 21.1,7.2 C21.1,7.2 21.1,7.2 21.1,7.2 C21,7.3 20.9,7.4 20.9,7.5 C20.9,7.5 20.9,7.5 20.9,7.6 C20.9,7.7 20.8,7.8 20.8,7.9 C20.8,7.9 20.8,7.9 20.8,7.9 L20.8,37.3 C20.8,37.3 20.8,37.3 20.8,37.3 C20.7,37.4 20.7,37.4 20.8,37.5 Z M67.9,6.7 L67.9,9.2 L67.9,16.3 L67.9,23.4 L67.9,30.5 L67.9,33.2 L65.3,32.5 C64.8,32.4 64.2,32.7 64.1,33.2 C64,33.7 64.3,34.3 64.8,34.4 L66.1,34.7 L51.3,42.4 L51.3,31.3 L57.8,32.9 C57.9,32.9 58,32.9 58,32.9 C58.4,32.9 58.9,32.6 59,32.1 C59.1,31.6 58.8,31 58.3,30.9 L51.4,29.2 C51.4,29.2 51.4,29.2 51.3,29.2 L51.3,13.2 L67.9,6.7 Z M39.3,2.8 L39.3,5.4 C39.3,6 39.7,6.4 40.3,6.4 C40.9,6.4 41.3,6 41.3,5.4 L41.3,2.5 L41.9,2.6 L44.1,2.9 C44.1,2.9 44.1,2.9 44.1,2.9 L65,5.7 L50.2,11.5 L25.7,7.5 L39.3,2.8 Z M22.7,9.1 L39.3,11.8 L39.3,17.5 C39.3,18.1 39.7,18.5 40.3,18.5 C40.9,18.5 41.3,18.1 41.3,17.5 L41.3,12.1 L49.3,13.4 L49.3,43 L24.5,36.9 L25.7,36.3 C26.2,36 26.4,35.4 26.1,35 C25.8,34.5 25.2,34.3 24.8,34.6 L22.7,35.7 L22.7,9.1 Z" id="Shape"></path>
                            <path d="M73.5,22 C73,21.8 72.4,22 72.2,22.6 C72,23.1 72.2,23.7 72.8,23.9 C80.9,27.1 85.5,31.6 85.5,36.1 C85.5,44.4 70.3,51.7 50.2,52.9 C49.6,52.9 49.2,53.4 49.3,54 C49.3,54.5 49.8,54.9 50.3,54.9 C50.3,54.9 50.3,54.9 50.4,54.9 C71.9,53.5 87.5,45.6 87.5,36.1 C87.5,30.6 82.6,25.6 73.5,22 Z" id="Shape"></path>
                            <path d="M34.5,48.3 C34.1,47.9 33.4,48 33.1,48.4 C32.7,48.8 32.8,49.5 33.2,49.8 L36.7,52.8 C17.4,51.4 2.5,44.2 2.5,36 C2.5,31.1 7.9,26.3 17.3,23 C17.8,22.8 18.1,22.2 17.9,21.7 C17.7,21.2 17.1,20.9 16.6,21.1 C6.3,24.8 0.5,30.2 0.5,36 C0.5,45.5 15.7,53.3 36.9,54.8 L33.2,57.9 C32.8,58.3 32.7,58.9 33.1,59.3 C33.3,59.5 33.6,59.7 33.9,59.7 C34.1,59.7 34.4,59.6 34.5,59.5 L40.2,54.7 C40.4,54.5 40.6,54.2 40.6,53.9 C40.6,53.6 40.5,53.3 40.2,53.1 L34.5,48.3 Z" id="Shape"></path>
                        </g>
                        <path d="M55.176,0 L4.824,0 C2.16,0 0,2.16 0,4.824 L0,103.176 C0,105.84 2.16,108 4.824,108 L55.176,108 C57.84,108 60,105.84 60,103.176 L60,4.824 C60,2.16 57.84,0 55.176,0 Z M22.2,4.8 L37.8,4.8 C38.4624,4.8 39,5.3376 39,6 C39,6.6624 38.4624,7.2 37.8,7.2 L22.2,7.2 C21.5376,7.2 21,6.6624 21,6 C21,5.3376 21.5376,4.8 22.2,4.8 Z M30,105.6 C28.0116,105.6 26.4,103.9884 26.4,102 C26.4,100.0116 28.0116,98.4 30,98.4 C31.9884,98.4 33.6,100.0116 33.6,102 C33.6,103.9884 31.9884,105.6 30,105.6 Z M57,96 L3,96 L3,12 L57,12 L57,96 Z" id="Shape" fill="#ABE7FF"></path>
                    </g>
                </g>
            </g>
        </g>
    </g>
</svg>